<?xml version="1.0" standalone="no"?>
<!DOCTYPE svg PUBLIC "-//W3C//DTD SVG 20010904//EN"
 "http://www.w3.org/TR/2001/REC-SVG-20010904/DTD/svg10.dtd">
<svg version="1.0" xmlns="http://www.w3.org/2000/svg"
 width="512.000000pt" height="512.000000pt" viewBox="0 0 512.000000 512.000000"
 preserveAspectRatio="xMidYMid meet">
<metadata>
Created by potrace 1.16, written by Peter Selinger 2001-2019
</metadata>
<g transform="translate(0.000000,512.000000) scale(0.100000,-0.100000)"
fill="#000000" stroke="none">
<path d="M243 4206 c-95 -30 -187 -117 -222 -209 -21 -57 -21 -66 -21 -783 0
-628 2 -734 16 -787 54 -208 232 -378 443 -423 100 -21 4104 -21 4204 1 210
44 387 214 441 422 14 53 16 159 16 787 0 718 0 726 -22 783 -27 73 -102 154
-177 190 l-56 28 -2290 2 c-1864 1 -2298 -1 -2332 -11z m230 -483 c5 -237 18
-295 85 -399 77 -118 210 -209 341 -234 35 -6 615 -10 1661 -10 1046 0 1626 4
1661 10 131 25 264 116 341 234 67 104 80 162 85 399 l6 207 68 0 c120 0 109
72 109 -728 l0 -689 -31 -62 c-34 -68 -101 -130 -166 -153 -56 -19 -4090 -19
-4146 0 -65 23 -132 85 -166 153 l-31 62 0 689 c0 800 -11 728 109 728 l68 0
6 -207z m3877 19 c0 -183 -1 -190 -26 -240 -30 -61 -74 -98 -140 -118 -71 -21
-3177 -21 -3248 0 -66 20 -110 57 -140 118 -25 50 -26 57 -26 240 l0 188 1790
0 1790 0 0 -188z"/>
<path d="M543 2700 c-47 -28 -65 -62 -65 -121 0 -55 17 -87 66 -123 l27 -21
1989 0 1989 0 27 21 c49 36 66 68 66 123 0 59 -18 93 -65 121 -31 20 -67 20
-2017 20 -1950 0 -1986 0 -2017 -20z"/>
<path d="M1515 1797 c-114 -62 -159 -126 -160 -227 0 -106 42 -166 183 -261
39 -27 72 -54 72 -59 0 -5 -25 -35 -55 -68 -30 -32 -59 -71 -65 -86 -50 -131
90 -245 213 -173 54 32 131 124 166 197 36 76 37 193 3 263 -26 52 -98 129
-143 153 l-29 15 31 39 c59 73 47 175 -26 220 -50 31 -117 26 -190 -13z"/>
<path d="M2454 1799 c-115 -60 -163 -129 -164 -233 0 -103 40 -160 175 -253
38 -27 71 -55 73 -64 2 -9 -18 -37 -43 -63 -64 -66 -77 -89 -77 -138 -2 -86
57 -148 140 -148 57 0 86 16 153 87 80 83 111 149 117 244 8 129 -41 222 -152
296 l-44 30 29 27 c66 63 54 179 -24 226 -49 30 -113 26 -183 -11z"/>
<path d="M3385 1798 c-114 -63 -159 -127 -160 -228 0 -106 41 -166 181 -260
74 -51 74 -51 60 -78 -8 -15 -31 -43 -51 -62 -47 -45 -65 -80 -65 -125 0 -115
121 -181 223 -122 54 32 131 124 166 197 35 75 37 192 3 261 -25 52 -100 132
-144 155 l-28 15 31 38 c39 49 48 108 25 159 -25 53 -60 75 -126 79 -47 3 -64
-1 -115 -29z"/>
</g>
</svg>
